<?xml version="1.0" encoding="utf-8"?>
<!-- Generator: Adobe Illustrator 18.0.0, SVG Export Plug-In . SVG Version: 6.00 Build 0)  -->
<!DOCTYPE svg PUBLIC "-//W3C//DTD SVG 1.0//EN" "http://www.w3.org/TR/2001/REC-SVG-20010904/DTD/svg10.dtd">
<svg version="1.0" id="Слой_1" xmlns="http://www.w3.org/2000/svg" xmlns:xlink="http://www.w3.org/1999/xlink" x="0px" y="0px"
	 viewBox="0 0 198 198" enable-background="new 0 0 198 198" xml:space="preserve">
<rect x="0" y="0" fill="#FFFFFF" width="198" height="198"/>
<g>
	<g>
		<rect x="16.1" y="16" fill="#12100B" width="159.8" height="159.8"/>
		<path fill="#F199AB" d="M182,21.3h-3.4V23h3.4V21.3L182,21.3z M175.2,21.3h-3.4V23h3.4V21.3L175.2,21.3z M168.4,21.3H165V23h3.4
			V21.3L168.4,21.3z M161.6,21.3h-3.4V23h3.4V21.3L161.6,21.3z M154.9,21.3h-3.4V23h3.4V21.3L154.9,21.3z M148.1,21.3h-3.4V23h3.4
			V21.3L148.1,21.3z M141.3,21.3h-3.4V23h3.4V21.3L141.3,21.3z M134.5,21.3h-3.4V23h3.4V21.3L134.5,21.3z M127.7,21.3h-3.4V23h3.4
			V21.3L127.7,21.3z M121,21.3h-3.4V23h3.4V21.3L121,21.3z M114.2,21.3h-3.4V23h3.4V21.3L114.2,21.3z M107.4,21.3H104V23h3.4V21.3
			L107.4,21.3z M100.6,21.3h-3.4V23h3.4V21.3L100.6,21.3z M93.9,21.3h-3.4V23h3.4V21.3L93.9,21.3z M87.1,21.3h-3.4V23h3.4V21.3
			L87.1,21.3z M80.3,21.3h-3.4V23h3.4V21.3L80.3,21.3z M73.5,21.3h-3.4V23h3.4V21.3L73.5,21.3z M66.8,21.3h-3.4V23h3.4V21.3
			L66.8,21.3z M60,21.3h-3.4V23H60V21.3L60,21.3z M53.2,21.3h-3.4V23h3.4V21.3L53.2,21.3z M46.4,21.3h-3.4V23h3.4V21.3L46.4,21.3z
			 M39.7,21.3h-3.4V23h3.4V21.3L39.7,21.3z M32.9,21.3h-3.4V23h3.4V21.3L32.9,21.3z M26.1,21.3h-3.4V23h3.4V21.3L26.1,21.3z
			 M22.9,23.2h-1.7v3.4h1.7V23.2L22.9,23.2z M22.9,30h-1.7v3.4h1.7V30L22.9,30z M22.9,36.7h-1.7v3.4h1.7V36.7L22.9,36.7z M22.9,43.5
			h-1.7v3.4h1.7V43.5L22.9,43.5z M22.9,50.3h-1.7v3.4h1.7V50.3L22.9,50.3z M22.9,57.1h-1.7v3.4h1.7V57.1L22.9,57.1z M22.9,63.8h-1.7
			v3.4h1.7V63.8L22.9,63.8z M22.9,70.6h-1.7V74h1.7V70.6L22.9,70.6z M22.9,77.4h-1.7v3.4h1.7V77.4L22.9,77.4z M22.9,84.2h-1.7v3.4
			h1.7V84.2L22.9,84.2z M22.9,90.9h-1.7v3.4h1.7V90.9L22.9,90.9z M22.9,97.7h-1.7v3.4h1.7V97.7L22.9,97.7z M22.9,104.5h-1.7v3.4h1.7
			V104.5L22.9,104.5z M22.9,111.3h-1.7v3.4h1.7V111.3L22.9,111.3z M22.9,118h-1.7v3.4h1.7V118L22.9,118z M22.9,124.8h-1.7v3.4h1.7
			V124.8L22.9,124.8z M22.9,131.6h-1.7v3.4h1.7V131.6L22.9,131.6z M22.9,138.4h-1.7v3.4h1.7V138.4L22.9,138.4z M22.9,145.1h-1.7v3.4
			h1.7V145.1L22.9,145.1z M22.9,151.9h-1.7v3.4h1.7V151.9L22.9,151.9z M22.9,158.7h-1.7v3.4h1.7V158.7L22.9,158.7z M22.9,165.5h-1.7
			v3.4h1.7V165.5L22.9,165.5z M22.9,172.2h-1.7v3.4h1.7V172.2L22.9,172.2z M22.9,179h-1.7v3h1.7l0,0l0,0l0,0V179L22.9,179z
			 M28.4,180.3H25v1.7h3.4V180.3L28.4,180.3z M35.2,180.3h-3.4v1.7h3.4V180.3L35.2,180.3z M42,180.3h-3.4v1.7H42V180.3L42,180.3z
			 M48.7,180.3h-3.4v1.7h3.4V180.3L48.7,180.3z M55.5,180.3h-3.4v1.7h3.4V180.3L55.5,180.3z M62.3,180.3h-3.4v1.7h3.4V180.3
			L62.3,180.3z M69.1,180.3h-3.4v1.7h3.4V180.3L69.1,180.3z M75.8,180.3h-3.4v1.7h3.4V180.3L75.8,180.3z M82.6,180.3h-3.4v1.7h3.4
			V180.3L82.6,180.3z M89.4,180.3H86v1.7h3.4V180.3L89.4,180.3z M96.2,180.3h-3.4v1.7h3.4V180.3L96.2,180.3z M102.9,180.3h-3.4v1.7
			h3.4V180.3L102.9,180.3z M109.7,180.3h-3.4v1.7h3.4V180.3L109.7,180.3z M116.5,180.3h-3.4v1.7h3.4V180.3L116.5,180.3z
			 M123.3,180.3h-3.4v1.7h3.4V180.3L123.3,180.3z M130,180.3h-3.4v1.7h3.4V180.3L130,180.3z M136.8,180.3h-3.4v1.7h3.4V180.3
			L136.8,180.3z M143.6,180.3h-3.4v1.7h3.4V180.3L143.6,180.3z M150.4,180.3H147v1.7h3.4V180.3L150.4,180.3z M157.1,180.3h-3.4v1.7
			h3.4V180.3L157.1,180.3z M163.9,180.3h-3.4v1.7h3.4V180.3L163.9,180.3z M170.7,180.3h-3.4v1.7h3.4V180.3L170.7,180.3z
			 M177.5,180.3h-3.4v1.7h3.4V180.3L177.5,180.3z M182,179.7h-1.7v2.3h0.6l0,0h-0.6h0.6l0,0h1.1V179.7L182,179.7z M182,173h-1.7v3.4
			h1.7V173L182,173z M182,166.2h-1.7v3.4h1.7V166.2L182,166.2z M182,159.4h-1.7v3.4h1.7V159.4L182,159.4z M182,152.6h-1.7v3.4h1.7
			V152.6L182,152.6z M182,145.9h-1.7v3.4h1.7V145.9L182,145.9z M182,139.1h-1.7v3.4h1.7V139.1L182,139.1z M182,132.3h-1.7v3.4h1.7
			V132.3L182,132.3z M182,125.5h-1.7v3.4h1.7V125.5L182,125.5z M182,118.7h-1.7v3.4h1.7V118.7L182,118.7z M182,112h-1.7v3.4h1.7V112
			L182,112z M182,105.2h-1.7v3.4h1.7V105.2L182,105.2z M182,98.4h-1.7v3.4h1.7V98.4L182,98.4z M182,91.6h-1.7V95h1.7V91.6L182,91.6z
			 M182,84.9h-1.7v3.4h1.7V84.9L182,84.9z M182,78.1h-1.7v3.4h1.7V78.1L182,78.1z M182,71.3h-1.7v3.4h1.7V71.3L182,71.3z M182,64.5
			h-1.7v3.4h1.7V64.5L182,64.5z M182,57.8h-1.7v3.4h1.7V57.8L182,57.8z M182,51h-1.7v3.4h1.7V51L182,51z M182,44.2h-1.7v3.4h1.7
			V44.2L182,44.2z M182,37.4h-1.7v3.4h1.7V37.4L182,37.4z M182,30.7h-1.7v3.4h1.7V30.7L182,30.7z M182,23.9h-1.7v3.4h1.7V23.9
			L182,23.9z"/>
	</g>
	<g>
		<g>
			<path fill="#FFFFFF" d="M62.5,99.6h1.3v9.3H41.7v-1.3h20.8V99.6z"/>
			<path fill="#FFFFFF" d="M43,94.9h8.8V87H53v7.9h9.4v-8.2h1.3v9.6H41.7v-9.6H43V94.9z"/>
			<path fill="#FFFFFF" d="M41.7,70.1l22.1,6.1v1.6l-22.1,6.1v-1.3L61.6,77l-19.9-5.5V70.1z"/>
			<path fill="#FFFFFF" d="M43,65.6h8.8v-7.9H53v7.9h9.4v-8.2h1.3v9.6H41.7v-9.6H43V65.6z"/>
			<path fill="#FFFFFF" d="M62.5,44.6h1.3V54H41.7v-1.3h20.8V44.6z"/>
			<path fill="#FFFFFF" d="M79.9,86.4c0,14.5,6.8,18.9,14.2,18.9c7.3,0,14.3-4.5,14.3-18.9V45h3.8v42.3c0,16.6-9.3,21.8-18.1,21.8
				c-9,0-18-5.3-18-21.8V45h3.8V86.4z"/>
			<path fill="#FFFFFF" d="M138.9,45c8.8,0,18.5,4,18.5,15.9V64c0,11.5-9.5,15.8-18.2,15.9h-10.3v28.4H125V45H138.9z M153.6,61.6
				c0-10.3-7.4-12.9-14.4-12.9h-10.4v27.6h10.4c7,0,14.4-2.8,14.4-12.9L153.6,61.6z"/>
			<path fill="#FFFFFF" d="M61.9,119.6v39.8h-2.4L43,124.9v34.5h-2.4v-39.8H43L59.5,154v-34.5H61.9z"/>
			<path fill="#FFFFFF" d="M86.6,146.1H74l-3.7,13.2h-2.4l11-39.8h2.9l11,39.8h-2.4L86.6,146.1z M86.2,143.7l-5.8-21l-5.8,21H86.2z"
				/>
			<path fill="#FFFFFF" d="M98.9,119.6h2.5v39.8h-2.5V119.6z"/>
			<path fill="#FFFFFF" d="M126.3,157v2.3h-16.8v-39.8h2.4V157H126.3z"/>
			<path fill="#FFFFFF" d="M134.8,147.6c0,7.5,5.1,9.9,9.2,9.9c5.2,0,9.1-2.4,9.1-8.5c0-5.8-4-7.8-8.9-9.4
				c-3.9-1.2-10.6-2.8-10.6-10.5c0-7.4,5.5-10,10.6-10c5.2,0,10.8,3.2,10.8,12.2h-2.4c0-7.1-4.4-9.9-8.5-9.9c-4.2,0-8.2,2.1-8.2,7.6
				c0.1,6.6,6.5,7.6,9,8.3c7.2,2.2,10.5,5.3,10.5,11.5c0,8.3-5.3,11-11.6,11c-5.2,0-11.5-3.1-11.5-12.2H134.8z"/>
		</g>
		<path fill="#F199AB" d="M79.9,86.4c0,14.5,6.8,18.9,14.2,18.9c7.3,0,14.3-4.5,14.3-18.9V45l-14.2-3.4L79.9,45V86.4z"/>
		<path fill="#F9DAE9" d="M94.2,38.2L94.2,38.2L94.2,38.2L94.2,38.2L94.2,38.2c-7.9,0-14.3,3.1-14.3,6.8c0,0,0,0,0,0l0,13.2
			l14.2-8.5l14.2,8.5l0-13.2c0,0,0,0,0,0C108.4,41.3,102,38.2,94.2,38.2z"/>
	</g>
</g>
</svg>
